<?xml version="1.0" encoding="UTF-8" standalone="no"?>
<svg version="1.1" xmlns="http://www.w3.org/2000/svg" width="16px" height="16px" viewBox="0 0 16 16">
	<path fill="#828282" d="M14.8115,2.5 L1.1885,2.5 C0.533166667,2.5 0,3.03316667 0,3.6885 L0,12.3115 C0,12.9668333 0.533166667,13.5 1.1885,13.5 L14.8115,13.5 C15.4668333,13.5 16,12.9668333 16,12.3115 L16,3.6885 C16,3.03316667 15.4668333,2.5 14.8115,2.5 L14.8115,2.5 Z M10.6853333,7.59716667 L15.1851667,3.32566667 C15.2765,3.41966667 15.3333333,3.54733333 15.3333333,3.6885 L15.3333333,12.3115 C15.3333333,12.4466667 15.2805,12.5686667 15.1958333,12.6615 L10.6853333,7.59716667 L10.6853333,7.59716667 Z M14.8115,3.16666667 C14.9383333,3.16666667 15.053,3.21383333 15.1435,3.28933333 L8.27966667,8.57033333 C8.11483333,8.69716667 7.88516667,8.69716667 7.7205,8.57033333 L0.8565,3.28933333 C0.947,3.21383333 1.06166667,3.16666667 1.1885,3.16666667 L14.8115,3.16666667 L14.8115,3.16666667 Z M0.804166667,12.6616667 C0.719666667,12.5688333 0.666666667,12.4466667 0.666666667,12.3115 L0.666666667,3.6885 C0.666666667,3.54733333 0.7235,3.41966667 0.814833333,3.32566667 L5.31466667,7.59716667 L0.804166667,12.6616667 L0.804166667,12.6616667 Z M1.1885,12.8333333 C1.06633333,12.8333333 0.9555,12.7893333 0.866333333,12.7188333 L6.12016667,8.36033333 L7.6845,9.8425 C7.8615,10.0101667 8.1385,10.0101667 8.31533333,9.8425 L9.87983333,8.36033333 L15.1335,12.7188333 C15.0446667,12.7893333 14.9336667,12.8333333 14.8115,12.8333333 L1.1885,12.8333333 L1.1885,12.8333333 Z"></path>
</svg>
