<?xml version="1.0" encoding="UTF-8" standalone="no"?>
<svg version="1.1" xmlns="http://www.w3.org/2000/svg" width="16px" height="16px" viewBox="0 0 16 16">
	<path fill="#828282" d="M3.134032,0 C1.41056,0 0,1.410528 0,3.134032 L0,12.859488 C0,14.58296 1.410528,15.993008 3.134032,15.993008 L12.859488,15.993008 C14.582976,15.993008 15.993008,14.582976 15.993008,12.859488 L15.993008,3.134032 C15.993008,1.41056 14.582976,9.09494702e-16 12.859488,9.09494702e-16 L3.134032,9.09494702e-16 L3.134032,0 Z M3.922288,2.639168 C4.748656,2.639168 5.257664,3.181664 5.273376,3.894768 C5.273376,4.592128 4.748624,5.149872 3.906304,5.149872 L3.8908,5.149872 C3.08016,5.149872 2.556208,4.59216 2.556208,3.894768 C2.556208,3.18168 3.096016,2.639168 3.922272,2.639168 L3.922288,2.639168 Z M13.824208,9.243104 L13.824208,13.410288 L11.40896,13.410288 L11.40896,9.522496 C11.40896,8.545536 11.059408,7.879008 10.185344,7.879008 C9.51808,7.879008 9.120352,8.328256 8.945728,8.76224 C8.881936,8.917504 8.866256,9.134352 8.866256,9.351552 L8.866256,13.410288 L6.451008,13.410288 L6.451008,6.14256 L8.866752,6.14256 L8.866752,7.171744 C9.187712,6.676544 9.761824,5.972112 11.043568,5.972112 C12.632832,5.972128 13.824208,7.01088 13.824208,9.243104 Z M5.11392,6.143088 L5.11392,13.41032 L2.698672,13.41032 L2.698672,6.143088 L5.11392,6.143088 Z"></path>
</svg>
