<?xml version="1.0" encoding="UTF-8" standalone="no"?>
<svg width="150px" height="150px" viewBox="0 0 150 150" version="1.1" xmlns="http://www.w3.org/2000/svg" xmlns:xlink="http://www.w3.org/1999/xlink" xmlns:sketch="http://www.bohemiancoding.com/sketch/ns">
    <title>articles</title>
    <description>Created with Sketch (http://www.bohemiancoding.com/sketch)</description>
    <defs></defs>
    <g id="Page-1" stroke="none" stroke-width="1" fill="none" fill-rule="evenodd" sketch:type="MSPage">
        <g id="articles" sketch:type="MSArtboardGroup">
            <circle id="Border" stroke="#FFFFFF" stroke-width="15" sketch:type="MSShapeGroup" cx="75" cy="75" r="67.5"></circle>
            <g id="Icon" sketch:type="MSLayerGroup" transform="translate(33.000000, 31.000000)" fill="#FFFFFF">
                <path d="M36,88 C37.3520444,90.3826667 39.97921,92 43,92 C46.02079,92 48.6472626,90.3826667 50,88 L36,88 Z M51.3833333,74 C52.8166667,74 54.25,72.56 54.25,71.12 C54.25,58.88 65,57.21752 65,41.6 C65,29.67032 55.3737333,20 43.5,20 C31.62555,20 22,29.67032 22,41.6 C22,57.21752 32.75,58.88 32.75,71.12 C32.75,72.56 34.1833333,74 35.6166667,74 L51.3833333,74 Z M52,78 C52,79.1 51.2211538,80 50.2692308,80 L35.7307692,80 C34.7788462,80 34,79.1 34,78 C34,76.9 34.7788462,76 35.7307692,76 L50.2692308,76 C51.2211538,76 52,76.9 52,78 Z M52,84 C52,85.1 51.2211538,86 50.2692308,86 L35.7307692,86 C34.7788462,86 34,85.1 34,84 C34,82.9 34.7788462,82 35.7307692,82 L50.2692308,82 C51.2211538,82 52,82.9 52,84 Z" id="Shape" sketch:type="MSShapeGroup"></path>
                <path d="M24.9290983,20.4933683 L17.004386,12.568656 C15.779493,11.343763 13.793549,11.343763 12.568656,12.568656 C11.343763,13.793549 11.343763,15.779493 12.568656,17.004386 L20.5207061,24.9564361 C21.8252874,23.3147791 23.3040688,21.8177725 24.9290983,20.4933683 Z M14.4044552,39.8537776 L3.10412808,39.8537776 C1.37186777,39.8537776 -0.0324066733,41.258052 -0.0324066733,42.9903123 C-0.0324066733,44.7225727 1.37186777,46.1268471 3.10412808,46.1268471 L14.4056696,46.1268471 C14.2944646,45.094711 14.2374128,44.0463512 14.2374128,42.9846663 C14.2374128,41.9268529 14.2940493,40.8822677 14.4044552,39.8537776 Z M20.5257071,61.0191876 L12.568656,68.9762387 C11.343763,70.2011317 11.343763,72.1870757 12.568656,73.4119687 C13.793549,74.6368617 15.779493,74.6368617 17.004386,73.4119687 L24.9353206,65.4810341 C23.3099201,64.1570723 21.8307316,62.6604728 20.5257071,61.0191876 Z M61.265643,65.701373 L68.9762387,73.4119687 C70.2011317,74.6368617 72.1870757,74.6368617 73.4119687,73.4119687 C74.6368617,72.1870757 74.6368617,70.2011317 73.4119687,68.9762387 L65.7287108,61.2929808 C64.4043066,62.9180103 62.9073,64.3967917 61.265643,65.701373 Z M72.0691561,46.1268471 L82.8764966,46.1268471 C84.6087569,46.1268471 86.0130314,44.7225727 86.0130314,42.9903123 C86.0130314,41.258052 84.6087569,39.8537776 82.8764966,39.8537776 L72.0703705,39.8537776 C72.1807764,40.8822677 72.2374128,41.9268529 72.2374128,42.9846663 C72.2374128,44.0463512 72.1803611,45.094711 72.0691561,46.1268471 Z M65.7337806,24.682574 L73.4119687,17.004386 C74.6368617,15.779493 74.6368617,13.793549 73.4119687,12.568656 C72.1870757,11.343763 70.2011317,11.343763 68.9762387,12.568656 L61.2719342,20.2729605 C62.9132194,21.577985 64.4098188,23.0571735 65.7337806,24.682574 Z M46.1268471,14.1268074 L46.1268471,3.24946136 C46.1268471,1.43693569 44.7225727,-0.0324066733 42.9903123,-0.0324066733 C41.258052,-0.0324066733 39.8537776,1.43693569 39.8537776,3.24946136 L39.8537776,14.1799589 C40.9637477,14.0509744 42.0928367,13.9846663 43.2374128,13.9846663 C44.2125474,13.9846663 45.1764407,14.0327952 46.1268471,14.1268074 Z" id="Path" sketch:type="MSShapeGroup"></path>
            </g>
        </g>
    </g>
</svg>