<?xml version="1.0" encoding="UTF-8" standalone="no"?>
<svg width="150px" height="150px" viewBox="0 0 150 150" version="1.1" xmlns="http://www.w3.org/2000/svg" xmlns:xlink="http://www.w3.org/1999/xlink" xmlns:sketch="http://www.bohemiancoding.com/sketch/ns">
    <title>github</title>
    <description>Created with Sketch (http://www.bohemiancoding.com/sketch)</description>
    <defs></defs>
    <g id="Page-1" stroke="none" stroke-width="1" fill="none" fill-rule="evenodd" sketch:type="MSPage">
        <g id="github" sketch:type="MSArtboardGroup" fill="#FFFFFF">
            <path d="M75,150 C116.421358,150 150,116.421358 150,75 C150,33.5786417 116.421358,0 75,0 C33.5786417,0 0,33.5786417 0,75 C0,116.421358 33.5786417,150 75,150 Z M74.388,14 C41.041,14 14,41.035 14,74.387 C14,101.068 31.303,123.704 55.297,131.689 C58.315,132.248 59.423,130.379 59.423,128.784 C59.423,127.344 59.367,122.587 59.341,117.541 C42.541,121.194 38.996,110.416 38.996,110.416 C36.249,103.436 32.291,101.58 32.291,101.58 C26.812,97.832 32.704,97.909 32.704,97.909 C38.768,98.334 41.961,104.132 41.961,104.132 C47.347,113.364 56.088,110.695 59.534,109.152 C60.076,105.25 61.641,102.584 63.368,101.077 C49.955,99.55 35.855,94.372 35.855,71.233 C35.855,64.64 38.214,59.253 42.077,55.024 C41.45,53.502 39.383,47.361 42.662,39.043 C42.662,39.043 47.733,37.42 59.273,45.233 C64.09,43.895 69.256,43.224 74.388,43.201 C79.52,43.224 84.69,43.895 89.516,45.233 C101.042,37.42 106.106,39.043 106.106,39.043 C109.393,47.361 107.325,53.502 106.698,55.024 C110.57,59.253 112.913,64.64 112.913,71.233 C112.913,94.427 98.786,99.534 85.339,101.029 C87.505,102.903 89.435,106.578 89.435,112.212 C89.435,120.291 89.365,126.794 89.365,128.784 C89.365,130.391 90.452,132.274 93.513,131.681 C117.494,123.687 134.775,101.059 134.775,74.387 C134.775,41.035 107.738,14 74.388,14 Z M36.6172697,101.023791 C36.4842697,101.324791 36.0122697,101.413791 35.5822697,101.207791 C35.1442697,101.010791 34.8982697,100.601791 35.0402697,100.300791 C35.1702697,99.991791 35.6432697,99.906791 36.0802697,100.111791 C36.5192697,100.309791 36.7692697,100.722791 36.6172697,101.023791 Z M39.5876883,103.674446 C39.2996883,103.941446 38.7366883,103.817446 38.3546883,103.395446 C37.9596883,102.974446 37.8856883,102.411446 38.1776883,102.140446 C38.4746883,101.873446 39.0206883,101.998446 39.4166883,102.419446 C39.8116883,102.845446 39.8886883,103.404446 39.5876883,103.674446 Z M41.625508,107.065625 C41.255508,107.322625 40.650508,107.081625 40.276508,106.544625 C39.906508,106.007625 39.906508,105.363625 40.284508,105.105625 C40.659508,104.847625 41.255508,105.079625 41.634508,105.612625 C42.003508,106.157625 42.003508,106.802625 41.625508,107.065625 Z M45.0718971,110.99309 C44.7408971,111.35809 44.0358971,111.26009 43.5198971,110.76209 C42.9918971,110.27509 42.8448971,109.58409 43.1768971,109.21909 C43.5118971,108.85309 44.2208971,108.95609 44.7408971,109.45009 C45.2648971,109.93609 45.4248971,110.63209 45.0718971,110.99309 Z M49.5260206,112.318958 C49.3800206,112.791958 48.7010206,113.006958 48.0170206,112.805958 C47.3340206,112.598958 46.8870206,112.044958 47.0250206,111.566958 C47.1670206,111.090958 47.8490206,110.866958 48.5380206,111.081958 C49.2200206,111.287958 49.6680206,111.837958 49.5260206,112.318958 Z M54.595,112.881357 C54.612,113.379357 54.032,113.792357 53.314,113.800357 C52.592,113.817357 52.008,113.414357 52,112.924357 C52,112.421357 52.567,112.012357 53.289,112.000357 C54.007,111.986357 54.595,112.386357 54.595,112.881357 Z M59.5747044,112.690474 C59.6607044,113.176474 59.1617044,113.675474 58.4487044,113.807474 C57.7477044,113.936474 57.0987044,113.636474 57.0097044,113.154474 C56.9227044,112.656474 57.4307044,112.157474 58.1307044,112.028474 C58.8447044,111.904474 59.4837044,112.196474 59.5747044,112.690474 Z" id="Icon" sketch:type="MSShapeGroup"></path>
        </g>
    </g>
</svg>