<?xml version="1.0" encoding="UTF-8" standalone="no"?>
<svg width="150px" height="150px" viewBox="0 0 150 150" version="1.1" xmlns="http://www.w3.org/2000/svg" xmlns:xlink="http://www.w3.org/1999/xlink" xmlns:sketch="http://www.bohemiancoding.com/sketch/ns">
    <title>resume</title>
    <description>Created with Sketch (http://www.bohemiancoding.com/sketch)</description>
    <defs></defs>
    <g id="Page-1" stroke="none" stroke-width="1" fill="none" fill-rule="evenodd" sketch:type="MSPage">
        <g id="resume" sketch:type="MSArtboardGroup">
            <circle id="Border" stroke="#FFFFFF" stroke-width="15" sketch:type="MSShapeGroup" cx="75" cy="75" r="67.5"></circle>
            <path d="M48.7425,118.75 L102.2268,118.75 C106.0653,118.75 109.1775,115.6369 109.1775,111.7984 L109.1775,40.2025 C109.1775,36.3631 106.0653,33.25 102.2268,33.25 L48.7425,33.25 C44.9031,33.25 41.79,36.3631 41.79,40.2025 L41.79,111.7993 C41.7909,115.6378 44.9031,118.75 48.7425,118.75 L48.7425,118.75 Z M62.6307008,68.4203151 C63.0957048,66.7084032 65.1658985,65.4418934 67.0694747,64.387739 L67.2132231,64.3082418 C67.8034624,63.9815411 68.8739518,63.3891237 69.857321,62.9938159 L70.1905557,62.8653136 C71.0073076,62.5560369 72.0266139,62.166174 72.1268021,61.1414227 C72.2052103,60.3475399 71.8033684,59.8389758 71.3383643,59.2476474 C71.2261971,59.1038991 71.1064068,58.9525278 70.9898835,58.7902664 C69.1374904,56.2496237 68.3338066,53.6185938 68.528738,50.7468943 C68.7726746,47.0856681 71.0737367,44.5635385 74.5367645,44.1660526 C74.8994023,44.1235815 75.2663962,44.1028904 75.623589,44.1028904 C77.6948716,44.1028904 79.4459875,44.814009 80.6841833,46.157838 C82.0955305,47.6867975 82.7293299,49.8985614 82.5137074,52.5535494 C82.3950062,54.0204357 81.7829868,55.921834 80.9553449,57.3963433 C80.7484345,57.7676931 80.4718278,58.1248859 80.1821532,58.5038588 C79.4383645,59.4708929 78.6858638,60.4509951 78.9929625,61.6271178 C79.211852,62.4580267 80.7484345,63.0243079 81.7644738,63.3978358 L81.9289131,63.4599089 C82.1183995,63.5306941 82.2839279,63.5927672 82.4146082,63.6504843 C84.2027502,64.4378331 87.5329197,65.9014524 88.3224465,68.2547867 C88.5119329,68.8101779 88.6676603,70.2520172 88.3191795,71.1449992 C87.1931509,74.0657037 80.8856488,74.4414096 75.5168667,74.4414096 C73.1602654,74.4414096 70.4388483,74.4043835 67.9787918,73.9491805 C66.286482,73.6355478 63.9189907,73.0365964 62.9258204,71.4531869 C62.4009212,70.617922 62.304,69.6269298 62.6307008,68.4203151 L62.6307008,68.4203151 Z M54.7086,85.6093 L96.2598,85.6093 C97.2165,85.6093 97.9914,86.3833 97.9914,87.34 C97.9914,88.2967 97.2165,89.0716 96.2598,89.0716 L54.7086,89.0716 C53.7528,89.0716 52.977,88.2976 52.977,87.34 C52.977,86.3842 53.7528,85.6093 54.7086,85.6093 L54.7086,85.6093 Z M54.7086,93.7066 L96.2598,93.7066 C97.2165,93.7066 97.9914,94.4806 97.9914,95.4382 C97.9914,96.3949 97.2165,97.1698 96.2598,97.1698 L54.7086,97.1698 C53.7528,97.1698 52.977,96.3949 52.977,95.4382 C52.977,94.4815 53.7528,93.7066 54.7086,93.7066 L54.7086,93.7066 Z M54.7086,101.8039 L96.2598,101.8039 C97.2165,101.8039 97.9914,102.5779 97.9914,103.5346 C97.9914,104.4913 97.2165,105.2653 96.2598,105.2653 L54.7086,105.2653 C53.7528,105.2653 52.977,104.4922 52.977,103.5346 C52.977,102.5788 53.7528,101.8039 54.7086,101.8039 L54.7086,101.8039 Z" id="Icon" fill="#FFFFFF" sketch:type="MSShapeGroup"></path>
        </g>
    </g>
</svg>